# xmcd
#
# Track frame offsets: 
#        150
#        18059
#        35056
#        49542
#        66949
#        83185
#        98136
#        115550
#        131137
#        157231
#        177259
#        198151
#        217092
#        238565
#        254022
#        269616
#        291430
#        308763
#        325554
#
# Disc length: 4608 seconds
#
# Revision: 0
# Processed by: cddbd v1.5.1PL0 Copyright (c) Steve Scherf et al.
# Submitted via: ExactAudioCopy v0.95a5
#
DISCID=1611fe13
DTITLE=OTHER - Classic Love Songs
DYEAR=2000
DGENRE=POP
TTITLE0=Take Me To You Heart
TTITLE1=Stop!Stop!Stop!
TTITLE2=What The World Need Now Is Love
TTITLE3=Je Mappelle Helene
TTITLE4=Cindearella
TTITLE5=Better Man
TTITLE6=Sitting Down Here
TTITLE7=Bring It All Back
TTITLE8=She's Gone
TTITLE9=Now You're Gone
TTITLE10=Please Don't Leace Me
TTITLE11=Love You With All My Heart
TTITLE12=Greatest Love Of All
TTITLE13=The Girl Next Door
TTITLE14=No Way I Can Hide
TTITLE15=Every Time I Think Of You
TTITLE16=Will You Still Love Me Tomorrow
TTITLE17=Alon
TTITLE18=Dreams
EXTD=
EXTT0=
EXTT1=
EXTT2=
EXTT3=
EXTT4=
EXTT5=
EXTT6=
EXTT7=
EXTT8=
EXTT9=
EXTT10=
EXTT11=
EXTT12=
EXTT13=
EXTT14=
EXTT15=
EXTT16=
EXTT17=
EXTT18=
PLAYORDER=
